PathFileType	4	(X/Y/Z)	C:\Documents and Settings\rtobon\Desktop\NewMocap\New\NoT\ActorI_Run.trc
DataRate	CameraRate	NumFrames	NumMarkers	Units	OrigDataRate	OrigDataStartFrame	OrigNumFrames
120.00	120.00	       4	49	mm	120.00	53	       105
Frame#	Time	Root			LtFtHip			LtBkHip			RtFtHip			RtBkHip			Spine1			Spine2			Spine3			SpineOffsetLow			SpineOffsetHigh			LtCtChest			RtCtChest			LtChest			RtChest			LtShoulder			LtBicep			LtElbow			LtForeArm			LtWrist			LtPinky			LtThumb			LtMiddFing			RtShoulder			RtBicep			RtElbow			RtForeArm			RtWrist			RtPinky			RtThumb			RtMiddFing			LtThigh			LtKnee			LtCalf			LtAnkle			LtHeel			LtBall			LtToe			RtThigh			RtKnee			RtCalf			RtAnkle			RtHeel			RtBall			RtToe			TopHead			LfFtHead			LtBkHead			RtFtHead			RtBkHead			
		X1	Y1	Z1	X2	Y2	Z2	X3	Y3	Z3	X4	Y4	Z4	X5	Y5	Z5	X6	Y6	Z6	X7	Y7	Z7	X8	Y8	Z8	X9	Y9	Z9	X10	Y10	Z10	X11	Y11	Z11	X12	Y12	Z12	X13	Y13	Z13	X14	Y14	Z14	X15	Y15	Z15	X16	Y16	Z16	X17	Y17	Z17	X18	Y18	Z18	X19	Y19	Z19	X20	Y20	Z20	X21	Y21	Z21	X22	Y22	Z22	X23	Y23	Z23	X24	Y24	Z24	X25	Y25	Z25	X26	Y26	Z26	X27	Y27	Z27	X28	Y28	Z28	X29	Y29	Z29	X30	Y30	Z30	X31	Y31	Z31	X32	Y32	Z32	X33	Y33	Z33	X34	Y34	Z34	X35	Y35	Z35	X36	Y36	Z36	X37	Y37	Z37	X38	Y38	Z38	X39	Y39	Z39	X40	Y40	Z40	X41	Y41	Z41	X42	Y42	Z42	X43	Y43	Z43	X44	Y44	Z44	X45	Y45	Z45	X46	Y46	Z46	X47	Y47	Z47	X48	Y48	Z48	X49	Y49	Z49	
53	0.433	20.02858	928.23560	14.01431	229.65419	896.20630	-114.09635	46.06100	936.61713	-105.61334	252.41504	894.65167	133.96092	52.33194	906.86993	143.80347	-37.95668	1042.63586	-22.47573	-101.31626	1159.11426	-39.03277	-130.85753	1254.28796	-32.30563	-8.68585	986.67676	76.35101	-79.91975	1210.01599	-136.06567	166.73323	1207.76855	26.01705	107.53239	1247.70642	74.06322	101.56646	1292.00720	-40.29921	47.01933	1264.55469	141.82913	10.00806	1329.73682	-155.31236	201.17986	1293.86841	-155.09181	314.59476	1186.40991	-201.68706	218.26553	1310.37927	-135.40102	233.44226	1399.87915	-116.07749	244.30962	1466.63428	-70.47424	156.47266	1392.57861	-99.76060	190.05013	1453.21130	-115.10921	-90.36109	1283.01794	190.54788	-111.41233	1128.07825	277.95148	-249.99049	1067.97974	316.68414	-130.14070	978.47815	284.94153	-111.37885	861.61102	303.07986	-99.53911	777.34247	281.42987	-61.47489	895.84430	264.35815	-61.47912	830.30176	313.53558	181.10909	623.92249	-152.08365	72.59824	433.00943	-151.62202	-116.01302	420.38739	-141.04198	-257.10138	274.61124	-105.21684	-343.96887	320.17511	-24.09325	-325.13486	149.60269	-104.49876	-304.52789	54.36215	-49.50125	389.17389	704.40405	113.72953	484.43729	549.79041	157.15321	373.14609	403.30154	194.61429	315.60510	192.27788	138.94293	244.61012	125.16816	63.06127	430.04297	93.34898	126.86262	510.13745	111.64175	63.17339	-260.65466	1483.41333	-18.85578	-115.68145	1513.83801	-61.76406	-174.14558	1388.53247	-96.13271	-130.57271	1527.40967	62.88778	-209.58812	1385.47974	79.35123	
54	0.442	49.97391	926.37201	14.45153	259.18143	895.58008	-114.23385	74.71784	934.64526	-104.48104	281.81488	893.87604	134.97359	81.54476	905.75769	145.14314	-8.76165	1043.62854	-19.10206	-70.38107	1160.66711	-36.48814	-98.62756	1256.14075	-30.46437	21.58326	987.06073	79.16287	-49.52921	1211.12817	-135.03993	198.59770	1208.28870	25.63988	140.23375	1248.58875	73.47699	133.53313	1291.32751	-41.89114	81.18745	1266.31750	141.61858	42.05318	1328.82080	-155.88448	233.53432	1288.09253	-157.58041	342.84149	1176.93042	-203.84990	250.85263	1304.01709	-135.84604	269.56613	1392.90637	-115.91255	282.10568	1458.79858	-69.72412	191.76079	1387.99500	-98.90429	227.34456	1447.43921	-113.63826	-56.01900	1284.51782	192.94440	-72.83842	1128.31702	279.21844	-209.87415	1064.16699	319.68637	-87.46045	979.28497	286.10434	-64.27556	862.61700	303.25577	-49.74345	779.83203	280.52725	-15.47121	899.34027	265.85019	-13.77424	833.11969	314.03082	222.03630	624.00476	-152.63470	122.11991	428.03906	-157.24193	-65.32145	419.52161	-145.02443	-211.72180	280.87421	-107.46514	-303.25912	326.23990	-21.32886	-281.73093	160.19350	-108.70565	-265.27487	63.59227	-56.47308	415.97095	693.96429	114.94243	505.05099	536.96936	155.60146	393.08185	391.67163	191.24243	338.27707	178.59613	133.65808	268.36777	113.88618	59.57346	452.44684	79.07701	123.92338	532.13098	96.42442	60.46840	-228.84264	1483.62427	-19.04890	-83.36896	1514.76538	-62.70969	-141.04533	1388.95972	-95.67047	-98.23524	1529.37036	61.57356	-176.34808	1387.04712	79.35735	
55	0.450	79.33520	924.18311	15.82560	288.78052	894.71967	-112.26811	103.70718	931.84540	-103.40472	310.87695	892.67334	136.19420	110.56744	903.42261	146.31065	22.28264	1043.12451	-15.36145	-39.73418	1160.89075	-33.19199	-66.58741	1257.20667	-28.47944	52.14774	986.53235	81.60318	-19.47546	1210.56262	-132.39583	229.90152	1207.17346	23.92145	172.74205	1248.81970	71.92176	165.31554	1289.09229	-43.86982	115.38876	1267.74329	140.88509	73.86781	1327.06274	-157.27119	264.76758	1279.42761	-160.23248	369.60776	1163.75586	-206.66885	283.79547	1294.20691	-136.34831	306.97668	1382.51355	-115.31343	323.70697	1447.16260	-68.79528	229.37230	1380.69873	-97.09926	267.56119	1439.02515	-111.62305	-21.33056	1285.09180	194.56538	-33.30300	1127.89355	281.09097	-167.79576	1058.64941	322.67374	-42.26392	980.35754	287.63510	-14.05636	864.35040	303.18353	4.20784	782.40985	278.87488	33.38176	903.65308	265.98846	37.11302	837.15948	313.24673	262.99219	623.97833	-152.82773	172.83873	423.86472	-162.95589	-12.91671	418.66406	-147.24486	-163.69850	285.97607	-110.16180	-254.22058	331.96255	-20.00534	-235.43111	168.42018	-113.53058	-225.20978	66.80305	-69.33717	441.91168	682.61322	116.95482	522.81836	522.46466	153.48851	410.87448	378.52585	188.20988	358.05612	165.61031	130.81721	289.65997	101.84939	54.27415	472.31931	64.03394	121.63373	552.91296	79.17884	58.49855	-195.87434	1484.44141	-19.02823	-51.13103	1515.14734	-63.43528	-108.81775	1389.23291	-96.00124	-65.57305	1530.92896	60.98480	-143.03162	1388.18701	80.14038	
56	0.458	109.07761	921.07568	17.29794	318.40866	893.19171	-111.23961	132.54684	927.46149	-101.94249	340.62350	890.80109	137.82289	139.85863	901.38824	148.06833	51.52427	1042.55652	-13.03711	-8.89128	1160.00977	-29.80435	-35.94817	1256.89783	-26.28609	83.16640	985.10199	84.56996	9.54805	1209.20764	-129.98520	261.25128	1205.67944	22.74244	205.23669	1248.44263	71.01114	196.72809	1286.87280	-45.20953	148.67166	1267.64490	140.71953	105.25699	1323.91406	-158.30214	295.48349	1267.20520	-162.04048	393.74200	1147.52063	-209.66443	317.75867	1282.26965	-136.51277	346.37540	1367.85901	-114.79368	368.32300	1431.71313	-67.32233	269.80786	1371.48645	-94.93246	310.99841	1427.65637	-110.10526	13.56224	1284.93640	196.62978	6.79347	1125.71118	282.83881	-124.41265	1051.76099	326.82623	4.63338	980.77545	288.65448	39.45614	867.55573	303.39581	61.83628	786.03827	277.86011	84.03367	908.82983	264.96365	92.77704	842.55212	311.77478	304.60410	624.52728	-154.72540	224.64764	420.33472	-168.53751	40.30228	419.01199	-149.59250	-113.42729	291.26361	-112.86395	-200.83035	337.11887	-20.96644	-187.10974	176.36450	-119.21281	-182.93246	68.85387	-80.21386	466.64020	670.00800	118.08331	538.55121	506.85437	151.02136	427.29535	364.39450	185.46426	377.80164	150.58009	125.67251	310.83286	88.26541	49.17884	491.43170	48.28165	119.30745	573.18365	61.47898	57.69315	-162.43040	1485.36792	-19.07658	-17.79751	1515.19885	-64.02634	-75.75754	1389.12073	-94.76679	-31.43137	1532.07874	60.00697	-110.09705	1390.12805	80.82082	
